<svg xmlns="http://www.w3.org/2000/svg" width="640" height="420" viewBox="0 0 640 420" role="img" aria-labelledby="title desc">
  <title id="title">筋肉スリングクラッシュ</title>
  <desc id="desc">筋肉美女をスリングで発射して塔を崩すゲーム</desc>
  <defs>
    <linearGradient id="bg" x1="0" y1="0" x2="1" y2="1">
      <stop offset="0" stop-color="#0f172a"/>
      <stop offset=".5" stop-color="#25152b"/>
      <stop offset="1" stop-color="#431416"/>
    </linearGradient>
    <radialGradient id="flash" cx=".34" cy=".4" r=".58">
      <stop offset="0" stop-color="#facc15" stop-opacity=".55"/>
      <stop offset=".5" stop-color="#ef4444" stop-opacity=".22"/>
      <stop offset="1" stop-color="#ef4444" stop-opacity="0"/>
    </radialGradient>
  </defs>
  <rect width="640" height="420" fill="url(#bg)"/>
  <rect width="640" height="420" fill="url(#flash)"/>
  <g opacity=".12" stroke="#fff">
    <path d="M0 70h640M0 140h640M0 210h640M0 280h640M0 350h640"/>
    <path d="M80 0v420M160 0v420M240 0v420M320 0v420M400 0v420M480 0v420M560 0v420"/>
  </g>
  <g>
    <path d="M82 318l16-118M150 318l-20-118" stroke="#7c2d12" stroke-width="18" stroke-linecap="round"/>
    <path d="M98 202c28 28 54 23 82 3" stroke="#fed7aa" stroke-width="10" stroke-linecap="round" fill="none"/>
    <circle cx="180" cy="204" r="34" fill="#fb7185"/>
    <path d="M222 198c58-33 112-52 170-60" stroke="#facc15" stroke-width="7" stroke-linecap="round" stroke-dasharray="12 14" fill="none"/>
  </g>
  <g>
    <rect x="410" y="270" width="34" height="84" rx="6" fill="#a16207" stroke="#f59e0b" stroke-width="5"/>
    <rect x="468" y="246" width="34" height="108" rx="6" fill="#64748b" stroke="#cbd5e1" stroke-width="5"/>
    <rect x="526" y="270" width="34" height="84" rx="6" fill="#a16207" stroke="#f59e0b" stroke-width="5"/>
    <rect x="392" y="224" width="188" height="28" rx="6" fill="#334155" stroke="#94a3b8" stroke-width="5"/>
    <circle cx="446" cy="198" r="22" fill="#84cc16"/>
    <circle cx="518" cy="198" r="22" fill="#fb923c"/>
  </g>
  <text x="34" y="58" fill="#fed7aa" font-size="22" font-family="system-ui, sans-serif" font-weight="800">MuscleLove Games</text>
  <text x="34" y="106" fill="#fff7ed" font-size="42" font-family="system-ui, sans-serif" font-weight="900">筋肉スリングクラッシュ</text>
  <text x="36" y="372" fill="#facc15" font-size="24" font-family="system-ui, sans-serif" font-weight="900">引っ張って発射。塔ごと崩せ。</text>
</svg>
