<svg xmlns="http://www.w3.org/2000/svg" width="640" height="360" viewBox="0 0 640 360" role="img" aria-labelledby="title desc">
  <title id="title">筋肉マットフィット</title>
  <desc id="desc">Poster for the MuscleLove placement puzzle</desc>
  <defs>
    <linearGradient id="bg" x1="0%" y1="0%" x2="100%" y2="100%">
      <stop offset="0%" stop-color="#1b1331"/>
      <stop offset="100%" stop-color="#0e1525"/>
    </linearGradient>
    <linearGradient id="tileA" x1="0%" y1="0%" x2="0%" y2="100%">
      <stop offset="0%" stop-color="#ffd166"/>
      <stop offset="100%" stop-color="#ff8552"/>
    </linearGradient>
    <linearGradient id="tileB" x1="0%" y1="0%" x2="0%" y2="100%">
      <stop offset="0%" stop-color="#74f0b3"/>
      <stop offset="100%" stop-color="#38c996"/>
    </linearGradient>
  </defs>
  <rect width="640" height="360" rx="28" fill="url(#bg)"/>
  <circle cx="580" cy="60" r="82" fill="#ff8552" fill-opacity="0.16"/>
  <circle cx="90" cy="310" r="96" fill="#74f0b3" fill-opacity="0.12"/>
  <g transform="translate(40 48)">
    <rect x="0" y="0" width="240" height="240" rx="22" fill="#121b2d" stroke="rgba(255,255,255,0.18)"/>
    <g fill="none" stroke="rgba(255,255,255,0.08)">
      <path d="M30 0V240M60 0V240M90 0V240M120 0V240M150 0V240M180 0V240M210 0V240"/>
      <path d="M0 30H240M0 60H240M0 90H240M0 120H240M0 150H240M0 180H240M0 210H240"/>
    </g>
    <rect x="60" y="90" width="30" height="30" rx="8" fill="url(#tileA)"/>
    <rect x="90" y="90" width="30" height="30" rx="8" fill="url(#tileA)"/>
    <rect x="120" y="90" width="30" height="30" rx="8" fill="url(#tileA)"/>
    <rect x="120" y="60" width="30" height="30" rx="8" fill="url(#tileA)"/>
    <rect x="150" y="150" width="30" height="30" rx="8" fill="url(#tileB)"/>
    <rect x="180" y="150" width="30" height="30" rx="8" fill="url(#tileB)"/>
    <rect x="180" y="180" width="30" height="30" rx="8" fill="url(#tileB)"/>
  </g>
  <text x="318" y="136" fill="#ffd166" font-size="18" font-family="Arial, sans-serif" font-weight="700">Placement Puzzle</text>
  <text x="318" y="182" fill="#ffffff" font-size="34" font-family="Arial, sans-serif" font-weight="700">筋肉マットフィット</text>
  <text x="318" y="220" fill="#d9d3ea" font-size="18" font-family="Arial, sans-serif">3ピースを置いて列消し</text>
  <text x="318" y="248" fill="#d9d3ea" font-size="18" font-family="Arial, sans-serif">8x8 quick strategy</text>
</svg>
