<svg width="640" height="360" viewBox="0 0 640 360" fill="none" xmlns="http://www.w3.org/2000/svg">
  <defs>
    <linearGradient id="bg" x1="32" y1="24" x2="608" y2="336" gradientUnits="userSpaceOnUse">
      <stop stop-color="#241238"/>
      <stop offset="1" stop-color="#08111F"/>
    </linearGradient>
    <linearGradient id="warm" x1="0" y1="0" x2="1" y2="1">
      <stop stop-color="#FF6F61"/>
      <stop offset="1" stop-color="#FFB04A"/>
    </linearGradient>
  </defs>
  <rect width="640" height="360" rx="28" fill="url(#bg)"/>
  <circle cx="112" cy="90" r="80" fill="#FF6F61" fill-opacity="0.18"/>
  <circle cx="548" cy="276" r="92" fill="#54B7FF" fill-opacity="0.16"/>
  <rect x="44" y="54" width="240" height="240" rx="24" fill="#10192B" stroke="#FFFFFF" stroke-opacity="0.12"/>
  <rect x="72" y="82" width="52" height="52" rx="12" fill="url(#warm)"/>
  <text x="98" y="116" text-anchor="middle" font-family="Arial Black, sans-serif" font-size="24" fill="#13161D">↑</text>
  <rect x="136" y="82" width="52" height="52" rx="12" fill="#54B7FF"/>
  <text x="162" y="116" text-anchor="middle" font-family="Arial Black, sans-serif" font-size="24" fill="#13161D">→</text>
  <rect x="200" y="82" width="52" height="52" rx="12" fill="#62D48F"/>
  <text x="226" y="116" text-anchor="middle" font-family="Arial Black, sans-serif" font-size="24" fill="#13161D">↓</text>
  <rect x="72" y="146" width="52" height="52" rx="12" fill="#FFD166"/>
  <text x="98" y="180" text-anchor="middle" font-family="Arial Black, sans-serif" font-size="24" fill="#13161D">←</text>
  <rect x="136" y="146" width="52" height="52" rx="12" fill="#FFFFFF" fill-opacity="0.08"/>
  <rect x="200" y="146" width="52" height="52" rx="12" fill="#FFFFFF" fill-opacity="0.08"/>
  <rect x="72" y="210" width="52" height="52" rx="12" fill="#FFFFFF" fill-opacity="0.08"/>
  <rect x="136" y="210" width="52" height="52" rx="12" fill="#FFFFFF" fill-opacity="0.08"/>
  <rect x="200" y="210" width="52" height="52" rx="12" fill="#FFFFFF" fill-opacity="0.08"/>
  <text x="320" y="118" font-family="Arial Black, sans-serif" font-size="24" fill="#FFD166">NEW DAILY GAME</text>
  <text x="320" y="176" font-family="Impact, Arial Black, sans-serif" font-size="48" fill="#FFFFFF">筋肉ゲートスライド</text>
  <text x="320" y="218" font-family="Arial, sans-serif" font-size="22" fill="#D5D0E4">Gate Slide Puzzle</text>
  <text x="320" y="258" font-family="Arial, sans-serif" font-size="20" fill="#C2C8D8">Match crate colors to the edge gates</text>
</svg>
