<svg xmlns="http://www.w3.org/2000/svg" width="800" height="600" viewBox="0 0 800 600" role="img" aria-labelledby="title desc">
  <title id="title">筋肉ノノグラム</title>
  <desc id="desc">A compact nonogram puzzle board shaped like a dumbbell.</desc>
  <defs>
    <linearGradient id="bg" x1="0" y1="0" x2="1" y2="1">
      <stop offset="0" stop-color="#15110f"/>
      <stop offset=".58" stop-color="#2e2119"/>
      <stop offset="1" stop-color="#12322e"/>
    </linearGradient>
    <linearGradient id="tile" x1="0" y1="0" x2="1" y2="1">
      <stop offset="0" stop-color="#ff4b55"/>
      <stop offset="1" stop-color="#ff9c4a"/>
    </linearGradient>
  </defs>
  <rect width="800" height="600" rx="24" fill="url(#bg)"/>
  <circle cx="690" cy="92" r="130" fill="#2dd4bf" opacity=".16"/>
  <circle cx="96" cy="526" r="150" fill="#ff4b55" opacity=".18"/>
  <text x="56" y="78" fill="#2dd4bf" font-family="Arial, sans-serif" font-size="25" font-weight="800">MuscleLove</text>
  <text x="56" y="132" fill="#fff8f0" font-family="Arial, sans-serif" font-size="54" font-weight="900">筋肉ノノグラム</text>
  <text x="56" y="170" fill="#d8cabc" font-family="Arial, sans-serif" font-size="24" font-weight="700">数字ヒントで隠れた筋トレアイコンを完成</text>
  <g transform="translate(236 214)">
    <rect x="-26" y="-26" width="380" height="300" rx="18" fill="#fff8f0" opacity=".95"/>
    <g fill="#302821" font-family="Arial, sans-serif" font-size="18" font-weight="900" text-anchor="middle">
      <text x="28" y="-4">2</text><text x="82" y="-4">2</text><text x="136" y="-4">2</text><text x="190" y="-4">2</text><text x="244" y="-4">2</text><text x="298" y="-4">2</text>
      <text x="-9" y="35">2 2</text><text x="-9" y="89">2 2</text><text x="-9" y="143">2</text><text x="-9" y="197">2</text><text x="-9" y="251">2 2</text>
    </g>
    <g>
      <rect x="0" y="0" width="46" height="46" rx="6" fill="url(#tile)"/>
      <rect x="54" y="0" width="46" height="46" rx="6" fill="url(#tile)"/>
      <rect x="216" y="0" width="46" height="46" rx="6" fill="url(#tile)"/>
      <rect x="270" y="0" width="46" height="46" rx="6" fill="url(#tile)"/>
      <rect x="0" y="54" width="46" height="46" rx="6" fill="url(#tile)"/>
      <rect x="54" y="54" width="46" height="46" rx="6" fill="url(#tile)"/>
      <rect x="216" y="54" width="46" height="46" rx="6" fill="url(#tile)"/>
      <rect x="270" y="54" width="46" height="46" rx="6" fill="url(#tile)"/>
      <rect x="108" y="108" width="46" height="46" rx="6" fill="url(#tile)"/>
      <rect x="162" y="108" width="46" height="46" rx="6" fill="url(#tile)"/>
      <rect x="108" y="162" width="46" height="46" rx="6" fill="url(#tile)"/>
      <rect x="162" y="162" width="46" height="46" rx="6" fill="url(#tile)"/>
      <rect x="0" y="216" width="46" height="46" rx="6" fill="url(#tile)"/>
      <rect x="54" y="216" width="46" height="46" rx="6" fill="url(#tile)"/>
      <rect x="216" y="216" width="46" height="46" rx="6" fill="url(#tile)"/>
      <rect x="270" y="216" width="46" height="46" rx="6" fill="url(#tile)"/>
    </g>
  </g>
  <text x="56" y="544" fill="#f6c343" font-family="Arial, sans-serif" font-size="25" font-weight="900">1分集中ロジックパズル</text>
</svg>
