<svg xmlns="http://www.w3.org/2000/svg" width="640" height="420" viewBox="0 0 640 420" role="img" aria-labelledby="title desc">
  <title id="title">マッスルウォーフェア</title>
  <desc id="desc">筋肉美女オペレーターで戦う本格3DミリタリーFPS</desc>
  <defs>
    <linearGradient id="wbg" x1="0" y1="0" x2="0" y2="1">
      <stop offset="0" stop-color="#2a2416"/>
      <stop offset="0.45" stop-color="#8a6a3a"/>
      <stop offset="0.55" stop-color="#caa05a"/>
      <stop offset="1" stop-color="#5d4626"/>
    </linearGradient>
    <radialGradient id="wsun" cx="0.5" cy="0.5" r="0.55">
      <stop offset="0" stop-color="#ffe9b0"/>
      <stop offset="0.6" stop-color="#ffb74d"/>
      <stop offset="1" stop-color="#ffb74d" stop-opacity="0"/>
    </radialGradient>
    <linearGradient id="wskin" x1="0" y1="0" x2="1" y2="0">
      <stop offset="0" stop-color="#e8a87c"/>
      <stop offset="1" stop-color="#c97f55"/>
    </linearGradient>
  </defs>
  <rect width="640" height="420" fill="url(#wbg)"/>
  <circle cx="480" cy="180" r="150" fill="url(#wsun)"/>
  <circle cx="480" cy="180" r="62" fill="#ffd98a"/>
  <!-- distant base silhouettes -->
  <g fill="#3a2e1a">
    <rect x="0" y="196" width="640" height="14"/>
    <rect x="30" y="160" width="90" height="40"/>
    <rect x="44" y="146" width="20" height="18"/>
    <rect x="150" y="172" width="60" height="28"/>
    <polygon points="560,200 572,128 584,200"/>
    <rect x="566" y="128" width="12" height="10"/>
    <rect x="350" y="178" width="74" height="22"/>
  </g>
  <!-- watchtower -->
  <g stroke="#2c2212" stroke-width="6" fill="none">
    <line x1="92" y1="120" x2="80" y2="200"/><line x1="120" y1="120" x2="132" y2="200"/>
    <line x1="86" y1="156" x2="126" y2="156"/>
  </g>
  <rect x="84" y="96" width="44" height="30" fill="#2c2212"/>
  <!-- ground -->
  <rect x="0" y="206" width="640" height="214" fill="#7a5c30"/>
  <ellipse cx="180" cy="300" rx="120" ry="10" fill="#6a4f28"/>
  <ellipse cx="470" cy="350" rx="160" ry="12" fill="#6a4f28"/>
  <!-- sandbags -->
  <g fill="#9c7c44" stroke="#5d4626" stroke-width="2">
    <rect x="20" y="330" width="64" height="26" rx="12"/><rect x="86" y="330" width="64" height="26" rx="12"/>
    <rect x="52" y="306" width="64" height="26" rx="12"/><rect x="118" y="306" width="64" height="26" rx="12"/>
    <rect x="488" y="336" width="64" height="26" rx="12"/><rect x="554" y="336" width="64" height="26" rx="12"/>
    <rect x="520" y="312" width="64" height="26" rx="12"/>
  </g>
  <!-- operator from behind -->
  <g>
    <ellipse cx="320" cy="400" rx="64" ry="9" fill="#4a3818" opacity="0.7"/>
    <path d="M296 398 Q294 360 300 330 L316 334 Q312 366 310 398 Z" fill="#4a4636"/>
    <path d="M344 398 Q346 360 340 330 L324 334 Q328 366 330 398 Z" fill="#4a4636"/>
    <path d="M292 336 Q288 300 296 270 Q320 258 344 270 Q352 300 348 336 Q320 346 292 336 Z" fill="#5d5844"/>
    <rect x="290" y="262" width="60" height="46" rx="10" fill="#3f3b2c"/>
    <path d="M296 268 Q290 240 302 222 Q320 212 338 222 Q350 240 344 268 Q320 276 296 268 Z" fill="url(#wskin)"/>
    <line x1="320" y1="226" x2="320" y2="264" stroke="#8a4b28" stroke-opacity="0.5" stroke-width="2.4"/>
    <ellipse cx="294" cy="228" rx="11" ry="13" fill="url(#wskin)"/>
    <ellipse cx="346" cy="228" rx="11" ry="13" fill="url(#wskin)"/>
    <circle cx="320" cy="192" r="20" fill="#23202b"/>
    <path d="M298 188 Q320 166 342 188 L342 178 Q320 158 298 178 Z" fill="#4a4636"/>
    <path d="M324 172 Q348 188 338 226 Q332 232 328 226 Q336 196 318 176 Z" fill="#23202b"/>
    <circle cx="322" cy="170" r="5" fill="#ff2d3a"/>
    <g transform="rotate(-36 350 218)">
      <rect x="338" y="212" width="92" height="9" rx="3" fill="#1c1c26" stroke="#000"/>
      <rect x="328" y="208" width="18" height="17" rx="3" fill="#10101a"/>
      <rect x="372" y="206" width="16" height="4" rx="1.5" fill="#2c2c3a"/>
      <rect x="376" y="209" width="9" height="4" rx="1.5" fill="#f2c94c"/>
    </g>
  </g>
  <!-- title -->
  <g font-family="Segoe UI, sans-serif" font-weight="900">
    <text x="22" y="58" font-size="46" font-style="italic" fill="#ffffff" stroke="#000" stroke-width="1.6">MUSCLE</text>
    <text x="22" y="104" font-size="46" font-style="italic" fill="#f2c94c" stroke="#000" stroke-width="1.6">WARFARE</text>
    <text x="24" y="132" font-size="17" fill="#d8e8c8">マッスルウォーフェア</text>
    <text x="22" y="404" font-size="20" fill="#ffe9b0" stroke="#000" stroke-width="0.8">鉄の戦乙女作戦、開始。</text>
  </g>
</svg>
