<svg xmlns="http://www.w3.org/2000/svg" width="640" height="360" viewBox="0 0 640 360">
  <defs>
    <linearGradient id="g" x1="0" x2="1" y1="0" y2="1">
      <stop offset="0" stop-color="#111827"/>
      <stop offset=".55" stop-color="#243b5d"/>
      <stop offset="1" stop-color="#12342f"/>
    </linearGradient>
  </defs>
  <rect width="640" height="360" rx="24" fill="url(#g)"/>
  <rect x="44" y="220" width="552" height="68" rx="18" fill="#0f172a" stroke="#94a3b8" stroke-width="3"/>
  <g fill="#334155">
    <rect x="74" y="244" width="56" height="24" rx="8"/>
    <rect x="156" y="244" width="56" height="24" rx="8"/>
    <rect x="238" y="244" width="56" height="24" rx="8"/>
    <rect x="320" y="244" width="56" height="24" rx="8"/>
    <rect x="402" y="244" width="56" height="24" rx="8"/>
    <rect x="484" y="244" width="56" height="24" rx="8"/>
  </g>
  <rect x="70" y="64" width="95" height="88" rx="16" fill="#2b1730" stroke="#f472b6" stroke-width="4"/>
  <rect x="198" y="64" width="95" height="88" rx="16" fill="#142846" stroke="#60a5fa" stroke-width="4"/>
  <rect x="326" y="64" width="95" height="88" rx="16" fill="#33260f" stroke="#fbbf24" stroke-width="4"/>
  <rect x="454" y="64" width="95" height="88" rx="16" fill="#0f302d" stroke="#2dd4bf" stroke-width="4"/>
  <text x="117" y="119" text-anchor="middle" font-size="30" fill="#fff" font-family="Arial, sans-serif" font-weight="900">DB</text>
  <text x="245" y="119" text-anchor="middle" font-size="28" fill="#fff" font-family="Arial, sans-serif" font-weight="900">RUN</text>
  <text x="373" y="119" text-anchor="middle" font-size="28" fill="#fff" font-family="Arial, sans-serif" font-weight="900">ABS</text>
  <text x="501" y="119" text-anchor="middle" font-size="28" fill="#fff" font-family="Arial, sans-serif" font-weight="900">ZEN</text>
  <text x="34" y="328" font-size="38" fill="#fff" font-family="Arial, sans-serif" font-weight="900">筋肉コンベアフィット</text>
</svg>
