<svg xmlns="http://www.w3.org/2000/svg" width="640" height="420" viewBox="0 0 640 420">
  <defs>
    <linearGradient id="bg" x1="0" x2="1" y1="0" y2="1">
      <stop offset="0" stop-color="#ff3f6e"/>
      <stop offset="1" stop-color="#16171f"/>
    </linearGradient>
    <linearGradient id="tile" x1="0" x2="1" y1="0" y2="1">
      <stop offset="0" stop-color="#52d7ff"/>
      <stop offset="1" stop-color="#b5f25d"/>
    </linearGradient>
  </defs>
  <rect width="640" height="420" rx="24" fill="url(#bg)"/>
  <text x="36" y="64" fill="#b5f25d" font-family="Arial, sans-serif" font-size="22" font-weight="900">NEW DAILY</text>
  <text x="36" y="112" fill="#fff" font-family="Arial, sans-serif" font-size="42" font-weight="900">筋肉アロー</text>
  <text x="36" y="158" fill="#fff" font-family="Arial, sans-serif" font-size="42" font-weight="900">フィット</text>
  <g transform="translate(292 58)">
    <rect x="0" y="0" width="286" height="286" rx="22" fill="#111217" opacity="0.78"/>
    <g fill="url(#tile)" font-family="Arial, sans-serif" font-size="48" font-weight="900" text-anchor="middle" dominant-baseline="central">
      <rect x="22" y="22" width="70" height="70" rx="12"/><text x="57" y="57" fill="#111217">↑</text>
      <rect x="108" y="22" width="70" height="70" rx="12"/><text x="143" y="57" fill="#111217">→</text>
      <rect x="194" y="22" width="70" height="70" rx="12"/><text x="229" y="57" fill="#111217">↓</text>
      <rect x="22" y="108" width="70" height="70" rx="12"/><text x="57" y="143" fill="#111217">←</text>
      <circle cx="143" cy="143" r="34" fill="#ffca4d"/>
      <rect x="194" y="108" width="70" height="70" rx="12"/><text x="229" y="143" fill="#111217">→</text>
      <rect x="22" y="194" width="70" height="70" rx="12"/><text x="57" y="229" fill="#111217">↑</text>
      <rect x="108" y="194" width="70" height="70" rx="12"/><text x="143" y="229" fill="#111217">←</text>
      <rect x="194" y="194" width="70" height="70" rx="12"/><text x="229" y="229" fill="#111217">↓</text>
    </g>
  </g>
  <text x="36" y="344" fill="#fff" font-family="Arial, sans-serif" font-size="26" font-weight="800">矢印脱出パズル</text>
  <text x="36" y="382" fill="#e8edf4" font-family="Arial, sans-serif" font-size="20" font-weight="700">1分で出口を見切れ</text>
</svg>
