<svg xmlns="http://www.w3.org/2000/svg" width="512" height="512" viewBox="0 0 512 512">
  <defs>
    <linearGradient id="bg" x1="0" y1="0" x2="1" y2="1">
      <stop offset="0%" stop-color="#1d2038"/>
      <stop offset="100%" stop-color="#11131f"/>
    </linearGradient>
  </defs>
  <rect width="512" height="512" rx="48" fill="url(#bg)"/>
  <circle cx="412" cy="92" r="70" fill="#ff6f61" opacity="0.18"/>
  <circle cx="120" cy="86" r="84" fill="#ffd166" opacity="0.16"/>
  <text x="44" y="82" fill="#ffd166" font-family="Segoe UI, Arial, sans-serif" font-size="26" font-weight="700">LOCKER MATCH</text>
  <g transform="translate(48 120)">
    <rect x="0" y="0" width="112" height="152" rx="26" fill="#1a1e31" stroke="#ffffff" stroke-opacity="0.14"/>
    <rect x="150" y="0" width="112" height="152" rx="26" fill="#1a1e31" stroke="#ffffff" stroke-opacity="0.14"/>
    <rect x="300" y="0" width="112" height="152" rx="26" fill="#1a1e31" stroke="#ffffff" stroke-opacity="0.14"/>
    <rect x="18" y="82" width="76" height="46" rx="16" fill="#ff8a80"/>
    <rect x="168" y="82" width="76" height="46" rx="16" fill="#80deea"/>
    <rect x="318" y="82" width="76" height="46" rx="16" fill="#ffd180"/>
    <text x="32" y="112" fill="#171717" font-family="Segoe UI, Arial, sans-serif" font-size="18" font-weight="800">DB</text>
    <text x="180" y="112" fill="#171717" font-family="Segoe UI, Arial, sans-serif" font-size="18" font-weight="800">SHK</text>
    <text x="330" y="112" fill="#171717" font-family="Segoe UI, Arial, sans-serif" font-size="18" font-weight="800">BLT</text>
  </g>
  <rect x="66" y="334" width="380" height="94" rx="24" fill="rgba(255,255,255,0.06)" stroke="rgba(255,255,255,0.14)"/>
  <text x="94" y="390" fill="#ffffff" font-family="Segoe UI, Arial, sans-serif" font-size="32" font-weight="800">3 MATCH TO CLEAR</text>
</svg>
