<svg xmlns="http://www.w3.org/2000/svg" width="600" height="600" viewBox="0 0 600 600">
  <defs>
    <linearGradient id="bg" x1="0" y1="0" x2="0" y2="1">
      <stop offset="0%" stop-color="#061a2e"/>
      <stop offset="100%" stop-color="#0c3b1d"/>
    </linearGradient>
    <linearGradient id="gold" x1="0" y1="0" x2="0" y2="1">
      <stop offset="0%" stop-color="#ffe27a"/>
      <stop offset="100%" stop-color="#f5a623"/>
    </linearGradient>
  </defs>
  <rect width="600" height="600" fill="url(#bg)"/>
  <!-- crowd -->
  <rect y="120" width="600" height="60" fill="#142233"/>
  <g fill="#3d5a78">
    <circle cx="25" cy="140" r="5"/><circle cx="65" cy="158" r="5"/><circle cx="105" cy="138" r="5"/><circle cx="145" cy="160" r="5"/><circle cx="185" cy="142" r="5"/><circle cx="225" cy="156" r="5"/><circle cx="265" cy="139" r="5"/><circle cx="305" cy="159" r="5"/><circle cx="345" cy="141" r="5"/><circle cx="385" cy="155" r="5"/><circle cx="425" cy="137" r="5"/><circle cx="465" cy="161" r="5"/><circle cx="505" cy="143" r="5"/><circle cx="545" cy="157" r="5"/><circle cx="585" cy="139" r="5"/>
  </g>
  <!-- pitch -->
  <polygon points="40,580 560,580 505,180 95,180" fill="#1c7a33"/>
  <polygon points="40,580 560,580 548,490 52,490" fill="#1f8a3a"/>
  <polygon points="68,390 532,390 520,310 80,310" fill="#1f8a3a"/>
  <line x1="300" y1="180" x2="300" y2="580" stroke="#e8ffe8" stroke-width="5"/>
  <ellipse cx="300" cy="380" rx="95" ry="46" fill="none" stroke="#e8ffe8" stroke-width="5"/>
  <polygon points="95,180 505,180 560,580 40,580" fill="none" stroke="#e8ffe8" stroke-width="5"/>
  <!-- striker -->
  <ellipse cx="235" cy="520" rx="44" ry="11" fill="rgba(0,0,0,.35)"/>
  <path d="M205 520 L219 448 L251 448 L265 520 L241 520 L235 482 L229 520 Z" fill="#d94350"/>
  <rect x="209" y="408" width="52" height="52" rx="14" fill="#e23a4e"/>
  <circle cx="203" cy="418" r="13" fill="#e8a06c"/>
  <circle cx="267" cy="418" r="13" fill="#e8a06c"/>
  <circle cx="235" cy="380" r="22" fill="#f0b285"/>
  <path d="M213 374 Q235 352 257 374 L257 366 Q235 342 213 366 Z" fill="#5a2e1c"/>
  <path d="M257 376 q26 6 20 40 q-12 -6 -20 -18 Z" fill="#5a2e1c"/>
  <text x="235" y="446" font-family="Arial Black, sans-serif" font-size="26" fill="#ffe27a" text-anchor="middle" font-weight="900">10</text>
  <!-- ball -->
  <circle cx="310" cy="528" r="19" fill="#ffffff"/>
  <path d="M310 512 l9 7 -3.5 11 h-11 l-3.5 -11 Z" fill="#1b1b1b"/>
  <!-- keeper -->
  <ellipse cx="430" cy="470" rx="38" ry="10" fill="rgba(0,0,0,.35)"/>
  <path d="M408 470 L419 416 L443 416 L454 470 L436 470 L431 442 L426 470 Z" fill="#46315e"/>
  <rect x="409" y="382" width="44" height="44" rx="12" fill="#5d3a86"/>
  <circle cx="404" cy="392" r="11" fill="#cfa3e8"/>
  <circle cx="458" cy="392" r="11" fill="#cfa3e8"/>
  <circle cx="431" cy="360" r="18" fill="#d9b3ef"/>
  <text x="431" y="414" font-family="Arial Black, sans-serif" font-size="21" fill="#9dff70" text-anchor="middle" font-weight="900">9</text>
  <!-- title -->
  <text x="300" y="76" font-family="Arial Black, 'Hiragino Sans', 'Noto Sans JP', sans-serif" font-size="52" fill="url(#gold)" text-anchor="middle" font-weight="900">マッスルイレブン</text>
  <text x="300" y="248" font-family="Arial Black, sans-serif" font-size="26" fill="#ffffff" text-anchor="middle" font-weight="900" opacity="0.92">11 vs 11 SOCCER</text>
  <text x="300" y="284" font-family="'Hiragino Sans','Noto Sans JP',sans-serif" font-size="19" fill="#d6ffd6" text-anchor="middle">筋肉美女FC × TV中継カメラ</text>
</svg>
