<svg width="640" height="360" viewBox="0 0 640 360" fill="none" xmlns="http://www.w3.org/2000/svg">
  <rect width="640" height="360" rx="28" fill="#101523"/>
  <rect width="640" height="360" rx="28" fill="url(#bg)"/>
  <circle cx="106" cy="70" r="88" fill="#5AE0FF" fill-opacity="0.18"/>
  <circle cx="562" cy="294" r="96" fill="#FF8F5A" fill-opacity="0.2"/>
  <text x="36" y="56" fill="#95A2C8" font-family="Arial, sans-serif" font-size="18" letter-spacing="3">MUSCLELOVE</text>
  <text x="36" y="122" fill="#EEF3FF" font-family="Arial, sans-serif" font-size="44" font-weight="700">筋肉ラックソート</text>
  <text x="36" y="154" fill="#D7DEF6" font-family="Arial, sans-serif" font-size="20">色付きプレートを積み替える 60秒ソートパズル</text>
  <g transform="translate(360 52)">
    <rect x="0" y="0" width="64" height="220" rx="20" fill="rgba(255,255,255,0.08)" stroke="rgba(255,255,255,0.18)"/>
    <rect x="76" y="0" width="64" height="220" rx="20" fill="rgba(255,255,255,0.08)" stroke="rgba(255,255,255,0.18)"/>
    <rect x="152" y="0" width="64" height="220" rx="20" fill="rgba(255,255,255,0.08)" stroke="rgba(255,255,255,0.18)"/>
    <rect x="10" y="168" width="44" height="34" rx="14" fill="#FF8CAB"/>
    <rect x="10" y="128" width="44" height="34" rx="14" fill="#FF8CAB"/>
    <rect x="10" y="88" width="44" height="34" rx="14" fill="#FF8CAB"/>
    <rect x="86" y="168" width="44" height="34" rx="14" fill="#6BDCFF"/>
    <rect x="86" y="128" width="44" height="34" rx="14" fill="#6BDCFF"/>
    <rect x="162" y="168" width="44" height="34" rx="14" fill="#7AF7B1"/>
    <rect x="162" y="128" width="44" height="34" rx="14" fill="#FFD86F"/>
  </g>
  <defs>
    <linearGradient id="bg" x1="320" y1="0" x2="320" y2="360" gradientUnits="userSpaceOnUse">
      <stop stop-color="#1A243F"/>
      <stop offset="1" stop-color="#0B101C"/>
    </linearGradient>
  </defs>
</svg>
