<svg xmlns="http://www.w3.org/2000/svg" viewBox="0 0 600 600" role="img" aria-labelledby="title desc">
  <title id="title">筋肉ケーブルリンク</title>
  <desc id="desc">Poster art for the MuscleLove cable flow puzzle</desc>
  <defs>
    <linearGradient id="bg" x1="0" y1="0" x2="1" y2="1">
      <stop offset="0%" stop-color="#24153a"/>
      <stop offset="100%" stop-color="#0d0b12"/>
    </linearGradient>
  </defs>
  <rect width="600" height="600" rx="36" fill="url(#bg)"/>
  <circle cx="118" cy="98" r="92" fill="#ff725e" fill-opacity="0.18"/>
  <circle cx="496" cy="514" r="92" fill="#58b5ff" fill-opacity="0.18"/>
  <g transform="translate(82 132)">
    <rect x="0" y="0" width="312" height="312" rx="28" fill="#171125" stroke="#ffffff" stroke-opacity="0.1"/>
    <g transform="translate(32 32)" fill="none" stroke-width="20" stroke-linecap="round" stroke-linejoin="round">
      <path d="M20 20 H228" stroke="#ff6b6b"/>
      <path d="M228 20 V228" stroke="#58b5ff"/>
      <path d="M20 228 H180 V116" stroke="#63e6be"/>
      <path d="M76 76 H180 V180" stroke="#ffd43b"/>
    </g>
    <g transform="translate(32 32)">
      <circle cx="20" cy="20" r="17" fill="#ff6b6b"/>
      <circle cx="228" cy="20" r="17" fill="#ff6b6b"/>
      <circle cx="228" cy="228" r="17" fill="#58b5ff"/>
      <circle cx="20" cy="228" r="17" fill="#58b5ff"/>
      <circle cx="180" cy="116" r="17" fill="#63e6be"/>
      <circle cx="76" cy="228" r="17" fill="#63e6be"/>
      <circle cx="76" cy="76" r="17" fill="#ffd43b"/>
      <circle cx="180" cy="180" r="17" fill="#ffd43b"/>
    </g>
  </g>
  <text x="80" y="496" fill="#ffffff" font-family="Arial, sans-serif" font-size="56" font-weight="700">筋肉ケーブルリンク</text>
  <text x="82" y="544" fill="#d8d0eb" font-family="Arial, sans-serif" font-size="26">Cable Flow Puzzle</text>
</svg>
